<?xml version="1.0" encoding="UTF-8"?>
<svg xmlns="http://www.w3.org/2000/svg" width="40" height="40" viewBox="0 0 40 40" fill="none">
  <g clip-path="url(#clip0_2423_2004)">
    <mask id="mask0_2423_2004" style="mask-type:luminance" maskUnits="userSpaceOnUse" x="0" y="0" width="40" height="40">
      <path d="M40 0H0V40H40V0Z" fill="white"></path>
    </mask>
    <g mask="url(#mask0_2423_2004)">
      <path d="M3.32812 36.6641C3.32812 33.1278 4.73288 29.7365 7.23336 27.2359C9.73386 24.7355 13.1252 23.3307 16.6615 23.3307C20.1977 23.3307 23.5891 24.7355 26.0896 27.2359C28.59 29.7365 29.9948 33.1278 29.9948 36.6641H26.6615C26.6615 34.0119 25.6079 31.4683 23.7325 29.593C21.8572 27.7177 19.3136 26.6641 16.6615 26.6641C14.0093 26.6641 11.4658 27.7177 9.59039 29.593C7.71503 31.4683 6.66146 34.0119 6.66146 36.6641H3.32812ZM16.6615 21.6641C11.1365 21.6641 6.66146 17.1891 6.66146 11.6641C6.66146 6.13906 11.1365 1.66406 16.6615 1.66406C22.1865 1.66406 26.6615 6.13906 26.6615 11.6641C26.6615 17.1891 22.1865 21.6641 16.6615 21.6641ZM16.6615 18.3307C20.3448 18.3307 23.3281 15.3474 23.3281 11.6641C23.3281 7.98073 20.3448 4.9974 16.6615 4.9974C12.9781 4.9974 9.99479 7.98073 9.99479 11.6641C9.99479 15.3474 12.9781 18.3307 16.6615 18.3307ZM30.4681 24.5023C32.8104 25.5573 34.7981 27.2662 36.1924 29.4235C37.5868 31.581 38.3284 34.0953 38.3281 36.6641H34.9948C34.9952 34.7374 34.4391 32.8515 33.3933 31.2334C32.3475 29.6151 30.8565 28.3335 29.0997 27.5425L30.4665 24.5023H30.4681ZM29.3215 5.68573C31.0007 6.37789 32.4364 7.55329 33.4465 9.06278C34.4565 10.5723 34.9955 12.3478 34.9948 14.1641C34.9955 16.4513 34.1409 18.6561 32.5991 20.3454C31.0571 22.0347 28.9392 23.0865 26.6615 23.2941V19.9391C27.8964 19.7622 29.042 19.1941 29.9303 18.3182C30.8185 17.4422 31.4027 16.3046 31.5967 15.0723C31.7908 13.8399 31.5848 12.5779 31.0088 11.4713C30.4328 10.3647 29.5172 9.47197 28.3965 8.92406L29.3215 5.68573Z" fill="#F00109"></path>
    </g>
  </g>
  <defs>
    <clipPath id="clip0_2423_2004">
      <rect width="40" height="40" fill="white"></rect>
    </clipPath>
  </defs>
</svg>
