<?xml version="1.0" encoding="UTF-8"?>
<svg xmlns="http://www.w3.org/2000/svg" width="28" height="28" viewBox="0 0 28 28" fill="none">
  <path d="M17.5 4.66683H5.83333V23.3335H22.1667V9.3335H17.5V4.66683ZM3.5 3.4906C3.5 2.85155 4.02207 2.3335 4.66492 2.3335H18.6667L24.4996 8.16683L24.5 24.4914C24.5 25.1405 23.9809 25.6668 23.341 25.6668H4.65897C4.01889 25.6668 3.5 25.1356 3.5 24.5097V3.4906ZM14 13.4168C12.3892 13.4168 11.0833 12.111 11.0833 10.5002C11.0833 8.88933 12.3892 7.5835 14 7.5835C15.6108 7.5835 16.9167 8.88933 16.9167 10.5002C16.9167 12.111 15.6108 13.4168 14 13.4168ZM8.78204 19.8335C9.07222 17.2085 11.2977 15.1668 14 15.1668C16.7023 15.1668 18.9278 17.2085 19.2179 19.8335H8.78204Z" fill="white"></path>
</svg>
