<?xml version="1.0" encoding="UTF-8"?>
<svg xmlns="http://www.w3.org/2000/svg" width="40" height="40" viewBox="0 0 40 40" fill="none">
  <path d="M21.6654 35V38.3333H18.332V35H4.9987C4.07823 35 3.33203 34.2538 3.33203 33.3333V6.66667C3.33203 5.7462 4.07823 5 4.9987 5H14.9987C16.9899 5 18.7772 5.87292 19.9987 7.25697C21.2202 5.87292 23.0075 5 24.9987 5H34.9987C35.9192 5 36.6654 5.7462 36.6654 6.66667V33.3333C36.6654 34.2538 35.9192 35 34.9987 35H21.6654ZM33.332 31.6667V8.33333H24.9987C23.1577 8.33333 21.6654 9.82572 21.6654 11.6667V31.6667H33.332ZM18.332 31.6667V11.6667C18.332 9.82572 16.8397 8.33333 14.9987 8.33333H6.66536V31.6667H18.332Z" fill="#F00109"></path>
</svg>
