<?xml version="1.0" encoding="UTF-8"?>
<svg xmlns="http://www.w3.org/2000/svg" width="40" height="40" viewBox="0 0 40 40" fill="none">
  <path d="M19.9968 3.3335C29.2016 3.3335 36.6635 10.7954 36.6635 20.0002C36.6635 29.2048 29.2016 36.6668 19.9968 36.6668C16.1539 36.6668 12.5099 35.3595 9.5824 33.0132L1.71875 33.9957L4.5841 26.3528C3.76047 24.3568 3.33017 22.2077 3.33017 20.0002C3.33017 10.7954 10.7921 3.3335 19.9968 3.3335ZM19.9968 6.66683C12.633 6.66683 6.6635 12.6364 6.6635 20.0002C6.6635 21.9635 7.08707 23.8637 7.89403 25.6033L8.18765 26.2365L6.7749 30.0047L10.6341 29.5225L11.1972 30.0177C13.6142 32.1427 16.711 33.3335 19.9968 33.3335C27.3606 33.3335 33.3301 27.364 33.3301 20.0002C33.3301 12.6364 27.3606 6.66683 19.9968 6.66683ZM13.4135 11.6673H19.7295C25.4313 11.6673 28.798 14.9274 28.9626 19.548L28.9691 19.9062V19.9525C28.9691 24.6415 25.6991 28.1548 20.0733 28.3273L19.636 28.334H13.4135V11.6673ZM19.7991 15.7634H17.9518V24.2392H19.7991C22.4081 24.2392 24.1736 22.83 24.3056 20.3298L24.3135 20.0247V19.9782C24.3135 17.3103 22.5125 15.7634 19.7991 15.7634Z" fill="#F00109"></path>
</svg>
