<?xml version="1.0" encoding="UTF-8"?>
<svg xmlns="http://www.w3.org/2000/svg" width="40" height="40" viewBox="0 0 40 40" fill="none">
  <path d="M6.66797 36.6665C6.66797 29.3027 12.6375 23.3332 20.0013 23.3332C27.3651 23.3332 33.3346 29.3027 33.3346 36.6665H6.66797ZM21.668 26.8048V33.3332H29.4323C28.2385 29.9557 25.282 27.411 21.668 26.8048ZM18.3346 33.3332V26.8048C14.7207 27.411 11.7641 29.9557 10.5703 33.3332H18.3346ZM20.0013 21.6665C14.4763 21.6665 10.0013 17.1915 10.0013 11.6665C10.0013 6.1415 14.4763 1.6665 20.0013 1.6665C25.5263 1.6665 30.0013 6.1415 30.0013 11.6665C30.0013 17.1915 25.5263 21.6665 20.0013 21.6665ZM20.0013 18.3332C23.6853 18.3332 26.668 15.3506 26.668 11.6665C26.668 7.98245 23.6853 4.99984 20.0013 4.99984C16.3173 4.99984 13.3346 7.98245 13.3346 11.6665C13.3346 15.3506 16.3173 18.3332 20.0013 18.3332Z" fill="#F00109"></path>
</svg>
