<?xml version="1.0" encoding="UTF-8"?>
<svg xmlns="http://www.w3.org/2000/svg" width="28" height="28" viewBox="0 0 28 28" fill="none">
  <path d="M6.72199 19.8333H23.332V5.83333H4.66536V21.4493L6.72199 19.8333ZM7.52901 22.1667L2.33203 26.25V4.66667C2.33203 4.02234 2.85437 3.5 3.4987 3.5H24.4987C25.143 3.5 25.6654 4.02234 25.6654 4.66667V21C25.6654 21.6444 25.143 22.1667 24.4987 22.1667H7.52901ZM12.832 16.3333H15.1654V18.6667H12.832V16.3333ZM9.99389 10.2824C10.3661 8.41072 12.0177 7 13.9987 7C16.2539 7 18.082 8.82817 18.082 11.0833C18.082 13.3385 16.2539 15.1667 13.9987 15.1667H12.832V12.8333H13.9987C14.9652 12.8333 15.7487 12.0498 15.7487 11.0833C15.7487 10.1168 14.9652 9.33333 13.9987 9.33333C13.1497 9.33333 12.4419 9.93793 12.2823 10.7401L9.99389 10.2824Z" fill="white"></path>
</svg>
