<?xml version="1.0" encoding="UTF-8"?>
<svg xmlns="http://www.w3.org/2000/svg" width="28" height="28" viewBox="0 0 28 28" fill="none">
  <path d="M4.66667 13.2223L0 10.5002L14 2.3335L28 10.5002V20.4168H25.6667V11.8613L23.3333 13.2223V21.0133L23.0736 21.3343C20.9366 23.975 17.6654 25.6668 14 25.6668C10.3345 25.6668 7.06334 23.975 4.9264 21.3343L4.66667 21.0133V13.2223ZM7 14.5835V20.1738C8.71174 22.1132 11.213 23.3335 14 23.3335C16.7871 23.3335 19.2883 22.1132 21 20.1738V14.5835L14 18.6668L7 14.5835ZM4.63082 10.5002L14 15.9655L23.3692 10.5002L14 5.03481L4.63082 10.5002Z" fill="white"></path>
</svg>
