<?xml version="1.0" encoding="UTF-8"?>
<svg xmlns="http://www.w3.org/2000/svg" width="28" height="28" viewBox="0 0 28 28" fill="none">
  <path d="M4.66797 25.6665C4.66797 20.5118 8.84664 16.3332 14.0013 16.3332C19.156 16.3332 23.3346 20.5118 23.3346 25.6665H4.66797ZM15.168 18.7633V23.3332H20.603C19.7673 20.9689 17.6978 19.1877 15.168 18.7633ZM12.8346 23.3332V18.7633C10.3049 19.1877 8.23524 20.9689 7.39961 23.3332H12.8346ZM14.0013 15.1665C10.1338 15.1665 7.0013 12.034 7.0013 8.1665C7.0013 4.299 10.1338 1.1665 14.0013 1.1665C17.8688 1.1665 21.0013 4.299 21.0013 8.1665C21.0013 12.034 17.8688 15.1665 14.0013 15.1665ZM14.0013 12.8332C16.5801 12.8332 18.668 10.7453 18.668 8.1665C18.668 5.58767 16.5801 3.49984 14.0013 3.49984C11.4225 3.49984 9.33464 5.58767 9.33464 8.1665C9.33464 10.7453 11.4225 12.8332 14.0013 12.8332Z" fill="white"></path>
</svg>
