<?xml version="1.0" encoding="UTF-8"?>
<svg xmlns="http://www.w3.org/2000/svg" width="90" height="90" viewBox="0 0 90 90" fill="none">
  <path d="M0.5 0.5H46C70.0244 0.5 89.5 19.9756 89.5 44V46C89.5 70.0244 70.0244 89.5 46 89.5H44C19.9756 89.5 0.5 70.0244 0.5 46V0.5Z" fill="#FFECEC" fill-opacity="0.5" stroke="#F00109"></path>
  <path d="M58.3335 44.9999C58.3335 37.6361 52.364 31.6666 45.0002 31.6666C37.6364 31.6666 31.6668 37.6361 31.6668 44.9999C31.6668 52.3638 37.6364 58.3333 45.0002 58.3333C52.364 58.3333 58.3335 52.3638 58.3335 44.9999ZM61.6668 44.9999C61.6668 54.2046 54.2048 61.6666 45.0002 61.6666C35.7954 61.6666 28.3335 54.2046 28.3335 44.9999C28.3335 35.7952 35.7954 28.3333 45.0002 28.3333C54.2048 28.3333 61.6668 35.7952 61.6668 44.9999ZM47.5007 38.3333C48.0465 39.06 48.4377 39.9097 48.6252 40.8333H51.6668V43.3333H48.6252C48.046 46.1861 45.5238 48.3333 42.5002 48.3333H42.1847L48.384 54.5328L46.6163 56.3004L38.3335 48.0178V45.8333H42.5002C44.133 45.8333 45.522 44.7898 46.0368 43.3333H38.3335V40.8333H46.0368C45.522 39.3768 44.133 38.3333 42.5002 38.3333H38.3335V35.8333H51.6668V38.3333H47.5007Z" fill="#F00109"></path>
</svg>
