<?xml version="1.0" encoding="UTF-8"?>
<svg xmlns="http://www.w3.org/2000/svg" width="90" height="90" viewBox="0 0 90 90" fill="none">
  <path d="M0.5 0.5H46C70.0244 0.5 89.5 19.9756 89.5 44V46C89.5 70.0244 70.0244 89.5 46 89.5H44C19.9756 89.5 0.5 70.0244 0.5 46V0.5Z" fill="#FFECEC" fill-opacity="0.5" stroke="#F00109"></path>
  <path d="M50 31.6666H33.3333V58.3333H56.6667V38.3333H50V31.6666ZM30 29.9863C30 29.0733 30.7458 28.3333 31.6642 28.3333H51.6667L59.9995 36.6666L60 59.9874C60 60.9148 59.2585 61.6666 58.3443 61.6666H31.6557C30.7413 61.6666 30 60.9078 30 60.0136V29.9863ZM50 43.3333H51.6667V51.6666H38.3333V43.3333H40V41.6666C40 38.9052 42.2385 36.6666 45 36.6666C47.7615 36.6666 50 38.9052 50 41.6666V43.3333ZM46.6667 43.3333V41.6666C46.6667 40.7461 45.9205 39.9999 45 39.9999C44.0795 39.9999 43.3333 40.7461 43.3333 41.6666V43.3333H46.6667Z" fill="#F00109"></path>
</svg>
