<?xml version="1.0" encoding="UTF-8"?>
<svg xmlns="http://www.w3.org/2000/svg" width="90" height="90" viewBox="0 0 90 90" fill="none">
  <path d="M0.5 0.5H46C70.0244 0.5 89.5 19.9756 89.5 44V46C89.5 70.0244 70.0244 89.5 46 89.5H44C19.9756 89.5 0.5 70.0244 0.5 46V0.5Z" fill="#FFECEC" fill-opacity="0.5" stroke="#F00109"></path>
  <path d="M41.7572 28.4901C43.6258 26.8975 46.3745 26.8975 48.2433 28.4901L50.49 30.4047C50.7568 30.6322 51.0887 30.7696 51.4383 30.7975L54.3808 31.0323C56.8283 31.2276 58.772 33.1713 58.9673 35.6188L59.2022 38.5612C59.23 38.9108 59.3673 39.2427 59.5948 39.5097L61.5095 41.7564C63.1022 43.6251 63.1022 46.3737 61.5095 48.2426L59.5948 50.4891C59.3675 50.7561 59.2298 51.0881 59.202 51.4377L58.9673 54.3801C58.772 56.8277 56.8283 58.7712 54.3808 58.9664L51.4383 59.2012C51.0887 59.2292 50.7568 59.3667 50.49 59.5942L48.2433 61.5087C46.3745 63.1014 43.6258 63.1012 41.757 61.5087L39.5104 59.5942C39.2434 59.3667 38.9116 59.2292 38.562 59.2014L35.6196 58.9664C33.172 58.7711 31.2284 56.8276 31.0331 54.3801L30.7983 51.4377C30.7704 51.0881 30.6329 50.7563 30.4054 50.4893L28.4908 48.2424C26.8983 46.3737 26.8982 43.6252 28.4908 41.7564L30.4054 39.5097C30.6329 39.2428 30.7704 38.9108 30.7983 38.5612L31.0331 35.6188C31.2284 33.1712 33.172 31.2277 35.6195 31.0324L38.562 30.7975C38.9116 30.7696 39.2435 30.6322 39.5104 30.4047L41.7572 28.4901ZM46.0812 31.0271C45.4583 30.4963 44.542 30.4963 43.9192 31.0271L41.6725 32.9417C40.8717 33.6242 39.876 34.0366 38.8271 34.1203L35.8847 34.3551C35.0688 34.4202 34.421 35.0681 34.3559 35.8839L34.121 38.8265C34.0373 39.8753 33.6249 40.8709 32.9425 41.6718L31.0279 43.9184C30.497 44.5413 30.497 45.4576 31.0279 46.0804L32.9425 48.3271C33.6249 49.1279 34.0373 50.1238 34.1211 51.1724L34.3559 54.1149C34.421 54.9307 35.0688 55.5787 35.8847 55.6437L38.8271 55.8786C39.8759 55.9622 40.8717 56.3747 41.6725 57.0572L43.9192 58.9717C44.5422 59.5026 45.4583 59.5026 46.0812 58.9717L48.328 57.0571C49.1287 56.3747 50.1243 55.9622 51.1732 55.8786L54.1157 55.6437C54.9315 55.5786 55.5795 54.9307 55.6445 54.1149L55.8793 51.1724C55.963 50.1236 56.3753 49.1279 57.058 48.3272L58.9725 46.0804C59.5035 45.4576 59.5033 44.5414 58.9725 43.9184L57.0578 41.6718C56.3753 40.8709 55.963 39.8752 55.8793 38.8264L55.6445 35.8839C55.5795 35.0681 54.9315 34.4202 54.1157 34.3551L51.1732 34.1203C50.1245 34.0366 49.1287 33.6242 48.3278 32.9417L46.0812 31.0271ZM49.7138 37.9286L52.0708 40.2856L40.2857 52.0708L37.9287 49.7136L49.7138 37.9286ZM42.0535 42.0533C41.0772 43.0296 39.4943 43.0296 38.518 42.0533C37.5417 41.0771 37.5417 39.4941 38.518 38.5178C39.4943 37.5415 41.0772 37.5415 42.0535 38.5178C43.0298 39.4941 43.0298 41.0771 42.0535 42.0533ZM47.946 51.4814C48.9223 52.4578 50.5052 52.4578 51.4815 51.4814C52.4578 50.5051 52.4578 48.9223 51.4815 47.9459C50.5052 46.9696 48.9223 46.9696 47.946 47.9459C46.9697 48.9223 46.9697 50.5051 47.946 51.4814Z" fill="#F00109"></path>
</svg>
