<?xml version="1.0" encoding="UTF-8"?>
<svg xmlns="http://www.w3.org/2000/svg" width="40" height="40" viewBox="0 0 40 40" fill="none">
  <path d="M4.9987 5H34.9987C35.9192 5 36.6654 5.7462 36.6654 6.66667V33.3333C36.6654 34.2538 35.9192 35 34.9987 35H4.9987C4.07823 35 3.33203 34.2538 3.33203 33.3333V6.66667C3.33203 5.7462 4.07823 5 4.9987 5ZM6.66536 8.33333V31.6667H33.332V8.33333H6.66536ZM28.1654 21.6667C27.3932 25.4703 24.0304 28.3333 19.9987 28.3333C15.3963 28.3333 11.6654 24.6023 11.6654 20C11.6654 15.9684 14.5283 12.6055 18.332 11.8334V21.6667H28.1654ZM28.1654 18.3333H21.6654V11.8334C24.9305 12.4962 27.5025 15.0681 28.1654 18.3333Z" fill="#F00109"></path>
</svg>
