<?xml version="1.0" encoding="UTF-8"?>
<svg xmlns="http://www.w3.org/2000/svg" width="40" height="40" viewBox="0 0 40 40" fill="none">
  <path d="M13.3333 6.66683C13.3333 8.50778 11.841 10.0002 10 10.0002C8.15905 10.0002 6.66667 8.50778 6.66667 6.66683C6.66667 4.82588 8.15905 3.3335 10 3.3335C11.841 3.3335 13.3333 4.82588 13.3333 6.66683ZM8.33333 26.6668V36.6668H5V16.6668C5 13.9054 7.23858 11.6668 10 11.6668C11.3677 11.6668 12.607 12.2159 13.5098 13.1057L17.4672 16.843L21.3218 12.9883L23.6788 15.3453L17.5335 21.4907L15 19.098V36.6668H11.6667V26.6668H8.33333ZM10 15.0002C9.07953 15.0002 8.33333 15.7464 8.33333 16.6668V23.3335H11.6667V16.6668C11.6667 15.7464 10.9205 15.0002 10 15.0002ZM31.6667 8.3335H16.6667V5.00016H33.3333C34.2538 5.00016 35 5.74636 35 6.66683V25.0002C35 25.9207 34.2538 26.6668 33.3333 26.6668H27.6263L32.3322 36.6668H28.6482L23.9423 26.6668H16.6667V23.3335H31.6667V8.3335Z" fill="#F00109"></path>
</svg>
