<?xml version="1.0" encoding="UTF-8"?>
<svg xmlns="http://www.w3.org/2000/svg" width="40" height="40" viewBox="0 0 40 40" fill="none">
  <path d="M6.30512 4.7098L20 1.6665L33.6948 4.7098C34.4575 4.87927 35 5.55562 35 6.33679V22.9813C35 26.3248 33.329 29.4472 30.547 31.3018L20 38.3332L9.453 31.3018C6.67102 29.4472 5 26.3248 5 22.9813V6.33679C5 5.55562 5.54255 4.87927 6.30512 4.7098ZM8.33333 7.67374V22.9813C8.33333 25.2103 9.44733 27.2918 11.302 28.5283L20 34.327L28.698 28.5283C30.5527 27.2918 31.6667 25.2103 31.6667 22.9813V7.67374L20 5.08115L8.33333 7.67374ZM20 18.3332C17.6988 18.3332 15.8333 16.4677 15.8333 14.1665C15.8333 11.8653 17.6988 9.99984 20 9.99984C22.3012 9.99984 24.1667 11.8653 24.1667 14.1665C24.1667 16.4677 22.3012 18.3332 20 18.3332ZM12.5458 26.6665C12.9603 22.9165 16.1395 19.9998 20 19.9998C23.8605 19.9998 27.0397 22.9165 27.4542 26.6665H12.5458Z" fill="#F00109"></path>
</svg>
